{"title":"The.Messenger.2009.DVDRiP.x264.AC3.NORDIC.mkv.Zen_Bud","uid":5839547,"size":1030318708,"categoryP":"video","categoryS":"movies","magnet":"?xt=urn:btih:a249395cb8a4661a9ac4ca476f982218a8e02ff4&amp;dn=The.Messenger.2009.DVDRiP.x264.AC3.NORDIC.mkv.Zen_Bud&amp;tr=udp%3A%2F%2Ftracker.openbittorrent.com%3A80&amp;tr=udp%3A%2F%2Fopen.demonii.com%3A1337&amp;tr=udp%3A%2F%2Ftracker.coppersurfer.tk%3A6969&amp;tr=udp%3A%2F%2Fexodus.desync.com%3A6969","seeders":0,"leechers":0,"uploader":"Zen_Bud","files":-1,"time":1284883670,"description":"***** The.Messenger.2009.DVDRiP.x264.AC3.NORDIC.mkv.Zen_Bud ****\n\nFormat                           : Matroska\nFile size                        : 983 MiB\nDuration                         : 1h 48mn\nOverall bit rate                 : 1 271 Kbps\nWriting application              : HandBrake 0.9.4\n\nVideo\n\nFormat                           : AVC\nDuration                         : 1h 48mn\nBit rate                         : 798 Kbps\nWidth                            : 720 pixels\nHeight                           : 436 pixels\nDisplay aspect ratio             : 2.35:1\nStream size                      : 617 MiB (63%)\nWriting library                  : x264 core 79\n\n\n\nAudio\n\nFormat                           : AC-3\nDuration                         : 1h 48mn\nBit rate                         : 448 Kbps\nChannel(s)                       : 6 channels\nChannel positions                : Front: L C R, Side: L R, LFE\nSampling rate                    : 48.0 KHz\nBit depth                        : 16 bits\nStream size                      : 346 MiB (35%)\nLanguage                         : English\n\nText #1\nLanguage                         : Danish\n\nText #2\nLanguage                         : Swedish\n\nText #3\nLanguage                         : Norwegian\n\nText #4\nLanguage                         : Finnish\n\n","torrent":{"xt":"urn:btih:a249395cb8a4661a9ac4ca476f982218a8e02ff4","amp;dn":"The.Messenger.2009.DVDRiP.x264.AC3.NORDIC.mkv.Zen_Bud","amp;tr":["udp%3A%2F%2Ftracker.openbittorrent.com%3A80","udp%3A%2F%2Fopen.demonii.com%3A1337","udp%3A%2F%2Ftracker.coppersurfer.tk%3A6969","udp%3A%2F%2Fexodus.desync.com%3A6969"],"infoHash":"a249395cb8a4661a9ac4ca476f982218a8e02ff4","infoHashBuffer":{"type":"Buffer","data":[162,73,57,92,184,164,102,26,154,196,202,71,111,152,34,24,168,224,47,244]},"announce":[],"urlList":[]}}